<?xml version="1.0" encoding="utf-8"?>
<svg xmlns="http://www.w3.org/2000/svg" width="170px" height="150px" version="1.0">
  <g transform="matrix(0.992821, 0, 0, 1.041665, -7.09378, -6.365206)" style="transform-origin: 7.09378px 6.36521px;">
    <path d="M 63.847 7.236 C 45.74 7.633 41.461 8.031 38.874 9.425 C 34.298 11.911 29.821 16.687 28.627 20.369 C 28.03 22.159 22.857 47.132 17.086 75.686 C 9.028 115.583 6.738 128.815 7.137 131.999 C 8.53 140.754 14.3 147.32 22.757 149.509 C 25.244 150.205 46.436 150.504 84.044 150.305 C 136.775 150.007 141.749 149.907 145.431 148.216 C 150.504 145.927 155.678 140.953 157.469 136.874 C 158.265 135.082 160.653 123.641 162.941 111.503 C 165.13 99.266 168.91 79.268 171.299 66.93 C 178.263 31.213 179.059 25.144 177.865 20.369 C 176.373 14.996 172.393 10.32 167.12 8.031 C 163.24 6.34 160.155 6.241 124.338 6.439 C 103.146 6.539 75.885 6.937 63.847 7.236 Z M 163.936 21.961 L 167.021 24.746 L 165.528 31.711 C 164.632 35.492 160.155 59.071 155.48 84.143 C 150.803 109.215 146.227 131.004 145.431 132.596 C 144.635 134.188 143.043 135.978 142.048 136.476 C 140.954 137.072 117.573 137.769 83.447 138.167 C 20.17 138.963 22.956 139.162 20.071 132.197 C 18.877 129.312 19.274 126.327 25.145 97.773 C 28.727 80.561 33.402 57.479 35.591 46.535 C 37.88 35.591 40.268 25.641 41.163 24.348 C 44.346 19.274 44.844 19.274 104.838 19.175 L 160.851 19.175 L 163.936 21.961 Z" fill="#00C0C0"/>
    <path d="M 123.205 36.34 C 119.405 37.44 105.405 41.04 92.205 44.34 C 54.105 53.94 54.705 53.74 54.705 59.24 C 54.705 61.24 55.505 62.74 57.205 63.84 C 60.105 65.74 55.705 66.64 105.105 54.14 C 124.105 49.34 134.705 46.24 135.905 45.04 C 138.405 42.54 138.205 37.74 135.505 35.84 C 132.805 33.94 132.005 33.94 123.205 36.34 Z M 92.705 72.24 C 76.505 76.54 60.405 80.84 56.905 81.84 C 49.405 83.84 46.705 86.74 48.505 90.84 C 50.905 96.04 53.005 96.04 73.905 90.44 C 84.505 87.64 101.305 83.24 111.205 80.74 C 122.205 77.94 129.705 75.44 130.505 74.44 C 132.405 71.94 132.005 66.44 129.805 65.24 C 126.505 63.54 123.405 64.14 92.705 72.24 Z M 93.705 99.84 C 82.405 102.74 66.805 106.84 59.005 108.84 C 51.205 110.84 44.005 113.04 43.105 113.74 C 41.105 115.14 40.805 120.44 42.705 122.64 C 44.705 125.14 48.405 124.64 72.005 118.64 C 124.305 105.44 125.705 104.94 125.705 99.74 C 125.705 96.44 122.605 94.24 118.105 94.34 C 116.005 94.44 105.005 96.84 93.705 99.84 Z" fill="#00C0C0"/>
  </g>
</svg>