<svg xmlns="http://www.w3.org/2000/svg" width="1084" height="224" version="1.0" viewBox="0 0 813 168"><path d="M100.5 11c-18.2.4-22.5.8-25.1 2.2-4.6 2.5-9.1 7.3-10.3 11-.6 1.8-5.8 26.9-11.6 55.6-8.1 40.1-10.4 53.4-10 56.6 1.4 8.8 7.2 15.4 15.7 17.6 2.5.7 23.8 1 61.6.8 53-.3 58-.4 61.7-2.1 5.1-2.3 10.3-7.3 12.1-11.4.8-1.8 3.2-13.3 5.5-25.5 2.2-12.3 6-32.4 8.4-44.8 7-35.9 7.8-42 6.6-46.8-1.5-5.4-5.5-10.1-10.8-12.4-3.9-1.7-7-1.8-43-1.6-21.3.1-48.7.5-60.8.8zm100.6 14.8 3.1 2.8-1.5 7c-.9 3.8-5.4 27.5-10.1 52.7-4.7 25.2-9.3 47.1-10.1 48.7-.8 1.6-2.4 3.4-3.4 3.9-1.1.6-24.6 1.3-58.9 1.7-63.6.8-60.8 1-63.7-6-1.2-2.9-.8-5.9 5.1-34.6 3.6-17.3 8.3-40.5 10.5-51.5 2.3-11 4.7-21 5.6-22.3 3.2-5.1 3.7-5.1 64-5.2H198l3.1 2.8z" fill="#00C0C0"/><path d="M159.5 40.1c-3.8 1.1-17.8 4.7-31 8C90.4 57.7 91 57.5 91 63c0 2 .8 3.5 2.5 4.6 2.9 1.9-1.5 2.8 47.9-9.7 19-4.8 29.6-7.9 30.8-9.1 2.5-2.5 2.3-7.3-.4-9.2-2.7-1.9-3.5-1.9-12.3.5zM129 76c-16.2 4.3-32.3 8.6-35.8 9.6-7.5 2-10.2 4.9-8.4 9 2.4 5.2 4.5 5.2 25.4-.4 10.6-2.8 27.4-7.2 37.3-9.7 11-2.8 18.5-5.3 19.3-6.3 1.9-2.5 1.5-8-.7-9.2-3.3-1.7-6.4-1.1-37.1 7zM130 103.6c-11.3 2.9-26.9 7-34.7 9-7.8 2-15 4.2-15.9 4.9-2 1.4-2.3 6.7-.4 8.9 2 2.5 5.7 2 29.3-4 52.3-13.2 53.7-13.7 53.7-18.9 0-3.3-3.1-5.5-7.6-5.4-2.1.1-13.1 2.5-24.4 5.5zM334 83v46h17V37h-17v46zM757 53.6v16.6l-3.5-3c-8.1-7.2-25.9-5.8-34.8 2.6-6.4 6-9.2 16-8.5 29.8.8 15.7 6.8 25.1 18.3 29 8.8 3 20.2.7 26.8-5.4l2.7-2.6v2.6c0 5.4.6 5.8 9.1 5.8h7.9V37h-18v16.6zM753.3 80l3.7 2.2v13.7c0 11.9-.2 14-1.7 15.3-8 7-19.8 6.1-25-1.9-1.4-2.2-1.8-4.8-1.8-12.8 0-11.3 1.1-14 6.8-17.6 4.1-2.6 12.6-2.1 18 1.1zM286.5 39c-7.4 1.3-15.4 5.8-18.9 10.7-2.4 3.5-3 5.5-3.4 11.6-1 16.3 4.1 21.7 29.5 31.2 8.4 3.1 11.3 6 11.3 11.4 0 9.8-10.6 13.6-25.1 9.1-3.5-1-8.5-3.3-11.1-4.9L264 105v8.9c0 10.1.4 10.8 8.5 13.7 3.7 1.3 8.3 1.7 18 1.8 12.3.1 13.3 0 18.7-2.7 14.8-7.3 19.4-27.6 9.1-39.7-3.8-4.5-10.5-8.1-22.6-12.5-10-3.6-13.7-6.9-13.7-12.2 0-3 .7-4.6 2.6-6.4 2.3-2.1 3.5-2.4 10.4-2.4 7.2 0 8.4.3 15.9 4.1l8.1 4.2V44.2l-3.2-1.5c-8-3.6-20.3-5.2-29.3-3.7zM577 83.9V129h18V98.3l11.3-.6c13.1-.7 16.9-1.6 23.3-6 6.9-4.7 10.4-11.5 11.1-21.4.9-14.3-4.7-23.4-17.6-28.5-4.9-1.9-8.1-2.2-25.8-2.6l-20.3-.4v45.1zm39.3-27.6c4.4 2.9 6.2 6.5 6.2 12.8 0 10.6-5.6 14.9-19.2 14.9H595V53.8l9.4.4c6.6.3 10.1.9 11.9 2.1zM506 55.5V64h-11v13h10.8l.4 20.2c.3 17.9.5 20.8 2.3 24.3 3 6 7.3 8 17 8 4.4 0 9.2-.3 10.8-.8 2.6-.7 2.7-1 2.7-7v-6.3l-5.9.4c-5 .4-6.2.1-8-1.7-2-2-2.1-3.1-2.1-19.6V77h16V64h-16V47h-17v8.5zM382.3 63c-9.4 2-15.2 6.7-17.5 14.2-1.3 4.3-.7 5.2 4 6.4 1.7.5 3.3-.3 6.6-3.4 6.6-6.1 16.8-6.9 21.6-1.7 2.2 2.3 4.4 10.2 3.1 10.9-.3.2-4.6.4-9.4.5-21.8.3-30.6 6.5-30.7 21.7 0 7 2.3 11.3 7.8 15.1 7.1 4.7 21 3.9 29-1.7 3.7-2.6 4.2-2.8 4.2-1.1 0 4.6.8 5.1 9.2 5.1h8.1l-.5-23.2c-.5-21-.7-23.9-2.7-29.1-2.4-6.1-5.8-9.4-12.5-12.2-4.6-2-14.7-2.7-20.3-1.5zm17.7 42.4c-.9 8.1-5.9 12.6-13.8 12.6-5.9 0-9.2-3-9.2-8.4 0-7 4.1-9.4 16.1-9.5l7.5-.1-.6 5.4zM664.4 63.4c-9.4 2.3-15.2 7.6-16.8 15.2-.7 2.9-.5 3.1 3.4 4.3 3.9 1.2 4.2 1.1 6.2-1.5 4.4-5.5 13.5-7.8 20.3-5 3.8 1.6 5.2 3.7 6.1 9.5l.7 4.1h-10c-16.3 0-25.5 3.9-29.4 12.4-5 10.9.2 23.6 10.8 26.5 8.3 2.3 18.9.2 24.8-5l3.5-3.1v2.5c0 5.3.6 5.7 9.2 5.7h8.1l-.6-23.8c-.3-13.1-1-25.4-1.7-27.5-1.5-5-6.6-10.6-11.5-12.8-5.5-2.3-16.8-3.1-23.1-1.5zm18.6 41.7c0 4.6-.4 5.5-3.5 8.5-7.4 7-19.5 4.9-19.5-3.4 0-6.5 5.7-10.1 16.3-10.2h6.7v5.1zM456 65.1c-2.5 1.1-5.7 3.2-7.2 4.6l-2.8 2.7V64h-16v65h17l.2-23.1.3-23.2 2.6-1.9c6.9-5.2 17-4 20.1 2.2 1.5 3 1.8 6.5 1.8 24.7V129h17.2l-.4-25.3c-.4-26.4-1-29.8-5.6-35.1-5-5.6-18.6-7.4-27.2-3.5z" fill="#00C0C0"/></svg>